<svg xmlns="http://www.w3.org/2000/svg" fill="none" height="100%" overflow="visible" preserveAspectRatio="none" style="display: block;" viewBox="0 0 15 14" width="100%" role="presentation">
<g clip-path="url(#clip0_0_375)" id="ticktok">
<path d="M11.1539 3.19548C11.0682 3.15121 10.9848 3.10267 10.904 3.05006C10.6691 2.89472 10.4536 2.71167 10.2624 2.50487C9.78379 1.95731 9.60506 1.40181 9.53923 1.01288H9.54187C9.48687 0.690054 9.50961 0.48118 9.51305 0.48118H7.33336V8.90963C7.33336 9.02279 7.33336 9.13463 7.3286 9.24515C7.3286 9.25889 7.32728 9.27159 7.32649 9.28639C7.32649 9.29247 7.32649 9.29882 7.32517 9.30516C7.32517 9.30675 7.32517 9.30834 7.32517 9.30992C7.30219 9.61234 7.20525 9.90447 7.04287 10.1606C6.88049 10.4168 6.65766 10.6291 6.39396 10.7789C6.11913 10.9353 5.80829 11.0173 5.4921 11.0169C4.47655 11.0169 3.65348 10.1888 3.65348 9.16609C3.65348 8.1434 4.47655 7.31531 5.4921 7.31531C5.68434 7.31513 5.8754 7.34539 6.05818 7.40494L6.06082 5.1856C5.50595 5.11392 4.94224 5.15802 4.40526 5.31511C3.86829 5.4722 3.36969 5.73887 2.94094 6.09829C2.56524 6.42472 2.2494 6.8142 2.00761 7.24921C1.9156 7.40785 1.56845 8.04531 1.52641 9.0799C1.49997 9.66712 1.67632 10.2755 1.7604 10.5269V10.5322C1.81328 10.6803 2.01819 11.1856 2.35212 11.6115C2.62139 11.9532 2.93953 12.2533 3.29628 12.5023V12.497L3.30157 12.5023C4.35678 13.2193 5.52674 13.1722 5.52674 13.1722C5.72927 13.164 6.40771 13.1722 7.17816 12.8071C8.03269 12.4023 8.51918 11.7992 8.51918 11.7992C8.82998 11.4389 9.07711 11.0282 9.24997 10.5848C9.44721 10.0664 9.51305 9.4445 9.51305 9.19597V4.72449C9.53949 4.74035 9.89167 4.97328 9.89167 4.97328C9.89167 4.97328 10.399 5.29849 11.1906 5.51027C11.7586 5.66098 12.5237 5.69271 12.5237 5.69271V3.52888C12.2556 3.55797 11.7112 3.47336 11.1539 3.19548Z" fill="var(--fill-0, white)" id="Vector"></path>
</g>
<defs>
<clipPath id="clip0_0_375">
<rect fill="white" height="13.654" width="14.0475"></rect>
</clipPath>
</defs>
</svg>