<svg xmlns="http://www.w3.org/2000/svg" fill="none" height="100%" overflow="visible" preserveAspectRatio="none" style="display: block;" viewBox="0 0 18 12" width="100%" role="presentation">
<g clip-path="url(#clip0_0_378)" id="youtube">
<path d="M17.0119 1.88339C16.8159 1.18477 16.2384 0.634765 15.5048 0.448275C14.1776 0.109375 8.84796 0.109375 8.84796 0.109375C8.84796 0.109375 3.51928 0.109375 2.19113 0.448275C1.45748 0.634765 0.880021 1.18477 0.684065 1.88339C0.328125 3.14812 0.328125 5.78927 0.328125 5.78927C0.328125 5.78927 0.328125 8.43041 0.684065 9.69514C0.880021 10.3938 1.45748 10.9438 2.19113 11.1303C3.51833 11.4692 8.84796 11.4692 8.84796 11.4692C8.84796 11.4692 14.1766 11.4692 15.5048 11.1303C16.2384 10.9438 16.8159 10.3938 17.0119 9.69514C17.3678 8.43041 17.3678 5.78927 17.3678 5.78927C17.3678 5.78927 17.3678 3.14812 17.0119 1.88339ZM6.95466 2.94932L12.6346 5.78927L6.95466 8.62921V2.94932Z" fill="var(--fill-0, white)" id="Vector"></path>
</g>
<defs>
<clipPath id="clip0_0_378">
<rect fill="white" height="11.587" width="17.7213"></rect>
</clipPath>
</defs>
</svg>